<?xml version="1.0" encoding="UTF-8"?>
<svg version="1.1" xmlns="http://www.w3.org/2000/svg" width="1000" height="1000">
<path d="M0 0 C330 0 660 0 1000 0 C1000 330 1000 660 1000 1000 C670 1000 340 1000 0 1000 C0 670 0 340 0 0 Z " fill="#E3F2EA" transform="translate(0,0)"/>
<path d="M0 0 C2.93833498 1.32612525 5.01391473 2.7646345 7.28770065 5.041605 C7.91919266 5.6691149 8.55068466 6.29662481 9.20131278 6.94315016 C9.88614116 7.63380422 10.57096954 8.32445829 11.27655029 9.03604126 C12.01092386 9.76870598 12.74529744 10.5013707 13.50192475 11.25623739 C15.96797856 13.71899001 18.42680379 16.18883586 20.88574219 18.65869141 C22.64942706 20.42294026 24.41355212 22.18674916 26.17808533 23.95014954 C29.97936978 27.75097816 33.77756384 31.55485483 37.57299042 35.3615303 C43.06054378 40.86533709 48.55361084 46.36361357 54.0480397 51.86055557 C62.9622129 60.77910612 71.87191053 69.70211394 80.77880859 78.62792969 C89.43108758 87.29856644 98.08546445 95.96710033 106.74267578 104.6328125 C107.2762971 105.16695926 107.80991841 105.70110602 108.35971007 106.25143905 C111.03674187 108.93108092 113.71381501 111.61068148 116.39090872 114.29026151 C138.60035346 136.52043999 160.80246607 158.75792788 183 181 C181.67387475 183.93833498 180.2353655 186.01391473 177.958395 188.28770065 C177.3308851 188.91919266 176.70337519 189.55068466 176.05684984 190.20131278 C175.36619578 190.88614116 174.67554171 191.57096954 173.96395874 192.27655029 C172.86496166 193.37811065 172.86496166 193.37811065 171.74376261 194.50192475 C169.28100999 196.96797856 166.81116414 199.42680379 164.34130859 201.88574219 C162.57705974 203.64942706 160.81325084 205.41355212 159.04985046 207.17808533 C155.24902184 210.97936978 151.44514517 214.77756384 147.6384697 218.57299042 C142.13466291 224.06054378 136.63638643 229.55361084 131.13944443 235.0480397 C122.22089388 243.9622129 113.29788606 252.87191053 104.37207031 261.77880859 C95.70143356 270.43108758 87.03289967 279.08546445 78.3671875 287.74267578 C77.83304074 288.2762971 77.29889398 288.80991841 76.74856095 289.35971007 C74.06891908 292.03674187 71.38931852 294.71381501 68.70973849 297.39090872 C46.47956001 319.60035346 24.24207212 341.80246607 2 364 C-0.93833498 362.67387475 -3.01391473 361.2353655 -5.28770065 358.958395 C-5.91919266 358.3308851 -6.55068466 357.70337519 -7.20131278 357.05684984 C-7.88614116 356.36619578 -8.57096954 355.67554171 -9.27655029 354.96395874 C-10.37811065 353.86496166 -10.37811065 353.86496166 -11.50192475 352.74376261 C-13.96797856 350.28100999 -16.42680379 347.81116414 -18.88574219 345.34130859 C-20.64942706 343.57705974 -22.41355212 341.81325084 -24.17808533 340.04985046 C-27.97936978 336.24902184 -31.77756384 332.44514517 -35.57299042 328.6384697 C-41.06054378 323.13466291 -46.55361084 317.63638643 -52.0480397 312.13944443 C-60.9622129 303.22089388 -69.87191053 294.29788606 -78.77880859 285.37207031 C-87.43108758 276.70143356 -96.08546445 268.03289967 -104.74267578 259.3671875 C-105.2762971 258.83304074 -105.80991841 258.29889398 -106.35971007 257.74856095 C-109.03674187 255.06891908 -111.71381501 252.38931852 -114.39090872 249.70973849 C-136.60035346 227.47956001 -158.80246607 205.24207212 -181 183 C-179.67387475 180.06166502 -178.2353655 177.98608527 -175.958395 175.71229935 C-175.3308851 175.08080734 -174.70337519 174.44931534 -174.05684984 173.79868722 C-173.36619578 173.11385884 -172.67554171 172.42903046 -171.96395874 171.72344971 C-171.23129402 170.98907614 -170.4986293 170.25470256 -169.74376261 169.49807525 C-167.28100999 167.03202144 -164.81116414 164.57319621 -162.34130859 162.11425781 C-160.57705974 160.35057294 -158.81325084 158.58644788 -157.04985046 156.82191467 C-153.24902184 153.02063022 -149.44514517 149.22243616 -145.6384697 145.42700958 C-140.13466291 139.93945622 -134.63638643 134.44638916 -129.13944443 128.9519603 C-120.22089388 120.0377871 -111.29788606 111.12808947 -102.37207031 102.22119141 C-93.70143356 93.56891242 -85.03289967 84.91453555 -76.3671875 76.25732422 C-75.83304074 75.7237029 -75.29889398 75.19008159 -74.74856095 74.64028993 C-72.06891908 71.96325813 -69.38931852 69.28618499 -66.70973849 66.60909128 C-44.47956001 44.39964654 -22.24207212 22.19753393 0 0 Z " fill="#E2F2E9" transform="translate(499,197)"/>
<path d="M0 0 C2.93833498 1.32612525 5.01391473 2.7646345 7.28770065 5.041605 C7.91919266 5.6691149 8.55068466 6.29662481 9.20131278 6.94315016 C9.88614116 7.63380422 10.57096954 8.32445829 11.27655029 9.03604126 C12.01092386 9.76870598 12.74529744 10.5013707 13.50192475 11.25623739 C15.96797856 13.71899001 18.42680379 16.18883586 20.88574219 18.65869141 C22.64942706 20.42294026 24.41355212 22.18674916 26.17808533 23.95014954 C29.97936978 27.75097816 33.77756384 31.55485483 37.57299042 35.3615303 C43.06054378 40.86533709 48.55361084 46.36361357 54.0480397 51.86055557 C62.9622129 60.77910612 71.87191053 69.70211394 80.77880859 78.62792969 C89.43108758 87.29856644 98.08546445 95.96710033 106.74267578 104.6328125 C107.2762971 105.16695926 107.80991841 105.70110602 108.35971007 106.25143905 C111.03674187 108.93108092 113.71381501 111.61068148 116.39090872 114.29026151 C138.60035346 136.52043999 160.80246607 158.75792788 183 181 C181.67387475 183.93833498 180.2353655 186.01391473 177.958395 188.28770065 C177.3308851 188.91919266 176.70337519 189.55068466 176.05684984 190.20131278 C175.36619578 190.88614116 174.67554171 191.57096954 173.96395874 192.27655029 C172.86496166 193.37811065 172.86496166 193.37811065 171.74376261 194.50192475 C169.28100999 196.96797856 166.81116414 199.42680379 164.34130859 201.88574219 C162.57705974 203.64942706 160.81325084 205.41355212 159.04985046 207.17808533 C155.24902184 210.97936978 151.44514517 214.77756384 147.6384697 218.57299042 C142.13466291 224.06054378 136.63638643 229.55361084 131.13944443 235.0480397 C122.22089388 243.9622129 113.29788606 252.87191053 104.37207031 261.77880859 C95.70143356 270.43108758 87.03289967 279.08546445 78.3671875 287.74267578 C77.83304074 288.2762971 77.29889398 288.80991841 76.74856095 289.35971007 C74.06891908 292.03674187 71.38931852 294.71381501 68.70973849 297.39090872 C46.47956001 319.60035346 24.24207212 341.80246607 2 364 C-0.93833498 362.67387475 -3.01391473 361.2353655 -5.28770065 358.958395 C-5.91919266 358.3308851 -6.55068466 357.70337519 -7.20131278 357.05684984 C-7.88614116 356.36619578 -8.57096954 355.67554171 -9.27655029 354.96395874 C-10.37811065 353.86496166 -10.37811065 353.86496166 -11.50192475 352.74376261 C-13.96797856 350.28100999 -16.42680379 347.81116414 -18.88574219 345.34130859 C-20.64942706 343.57705974 -22.41355212 341.81325084 -24.17808533 340.04985046 C-27.97936978 336.24902184 -31.77756384 332.44514517 -35.57299042 328.6384697 C-41.06054378 323.13466291 -46.55361084 317.63638643 -52.0480397 312.13944443 C-60.9622129 303.22089388 -69.87191053 294.29788606 -78.77880859 285.37207031 C-87.43108758 276.70143356 -96.08546445 268.03289967 -104.74267578 259.3671875 C-105.2762971 258.83304074 -105.80991841 258.29889398 -106.35971007 257.74856095 C-109.03674187 255.06891908 -111.71381501 252.38931852 -114.39090872 249.70973849 C-136.60035346 227.47956001 -158.80246607 205.24207212 -181 183 C-179.67387475 180.06166502 -178.2353655 177.98608527 -175.958395 175.71229935 C-175.3308851 175.08080734 -174.70337519 174.44931534 -174.05684984 173.79868722 C-173.36619578 173.11385884 -172.67554171 172.42903046 -171.96395874 171.72344971 C-171.23129402 170.98907614 -170.4986293 170.25470256 -169.74376261 169.49807525 C-167.28100999 167.03202144 -164.81116414 164.57319621 -162.34130859 162.11425781 C-160.57705974 160.35057294 -158.81325084 158.58644788 -157.04985046 156.82191467 C-153.24902184 153.02063022 -149.44514517 149.22243616 -145.6384697 145.42700958 C-140.13466291 139.93945622 -134.63638643 134.44638916 -129.13944443 128.9519603 C-120.22089388 120.0377871 -111.29788606 111.12808947 -102.37207031 102.22119141 C-93.70143356 93.56891242 -85.03289967 84.91453555 -76.3671875 76.25732422 C-75.83304074 75.7237029 -75.29889398 75.19008159 -74.74856095 74.64028993 C-72.06891908 71.96325813 -69.38931852 69.28618499 -66.70973849 66.60909128 C-44.47956001 44.39964654 -22.24207212 22.19753393 0 0 Z M-4.15795672 35.8997941 C-5.01884514 36.76942105 -5.01884514 36.76942105 -5.89712524 37.65661621 C-6.5072834 38.26506551 -7.11744155 38.87351481 -7.74608934 39.50040197 C-9.80377963 41.55477959 -11.85420789 43.61625859 -13.90478516 45.67773438 C-15.3726124 47.14612535 -16.84087937 48.61407689 -18.30955505 50.08161926 C-22.30760247 54.07909067 -26.29943497 58.0827175 -30.29022264 62.08743477 C-34.45736818 66.26704648 -38.6301432 70.44102992 -42.80233765 74.61560059 C-50.707583 82.52707284 -58.60771448 90.44363146 -66.50604475 98.36200666 C-75.49594327 107.37422662 -84.49149238 116.38079726 -93.48753285 125.38688564 C-111.99800604 143.91828823 -130.501332 162.45681359 -149 181 C-145.81435531 184.76706594 -142.63397862 188.49238739 -139.13661194 191.97691345 C-138.43169113 192.68176376 -137.72677032 193.38661407 -137.00048828 194.11282349 C-136.24759521 194.86055023 -135.49470215 195.60827698 -134.71899414 196.37866211 C-133.9100621 197.18613388 -133.10113007 197.99360565 -132.26768494 198.82554626 C-130.52061127 200.56883091 -128.77238382 202.31095988 -127.02311897 204.05204582 C-124.25011664 206.81222128 -121.48030548 209.57556377 -118.71128845 212.33973694 C-112.33276342 218.70626977 -105.94922171 225.06776467 -99.56560516 231.42919159 C-93.24586301 237.72707426 -86.92813689 244.02696266 -80.61379814 250.33026314 C-77.89335048 253.04425791 -75.16989328 255.75520738 -72.44630432 258.46604919 C-70.76752066 260.14119792 -69.08887859 261.81648856 -67.41040039 263.49194336 C-66.65953156 264.23764587 -65.90866272 264.98334839 -65.13504028 265.75164795 C-61.1249688 269.76132001 -57.30997545 273.87128958 -53.60731983 278.16585636 C-51.31477987 280.7819179 -48.89502352 283.22452422 -46.43188477 285.68164062 C-45.66957298 286.44417145 -45.66957298 286.44417145 -44.89186096 287.22210693 C-43.24407348 288.86920861 -41.59279442 290.51275913 -39.94140625 292.15625 C-38.78533837 293.31044894 -37.62949394 294.46487172 -36.47386169 295.61950684 C-33.4561667 298.63341408 -30.43547913 301.64430403 -27.41412354 304.65454102 C-24.32176853 307.73660074 -21.23230132 310.82155233 -18.14257812 313.90625 C-12.09784888 319.94030804 -6.04994994 325.97117643 0 332 C4.17551927 330.36142705 6.96863295 327.30403508 10.06170654 324.17880249 C10.66540644 323.57681144 11.26910634 322.9748204 11.89110017 322.3545872 C13.91493226 320.33405216 15.93152825 318.30644654 17.94824219 316.27880859 C19.39666009 314.82982663 20.84551837 313.38128477 22.29478455 311.93315125 C26.23073162 307.99777886 30.16047437 304.0562629 34.08915234 300.11363554 C38.19488224 295.9954177 42.30626258 291.88284896 46.41705322 287.76968384 C54.20182102 279.97869558 61.98147579 272.18262231 69.75931764 264.38472044 C78.61382584 255.50787087 87.47400208 246.636688 96.33466482 237.76598239 C114.56276811 219.51696428 132.78372286 201.26082252 151 183 C149.3610628 178.82906726 146.3114038 176.03279702 143.19226074 172.93829346 C142.59168083 172.33459356 141.99110091 171.73089366 141.37232161 171.10889983 C139.35646947 169.08506342 137.33353538 167.068459 135.31054688 165.05175781 C133.8648238 163.60332513 132.41952664 162.15446721 130.97462463 160.70521545 C127.04759786 156.76906048 123.11425827 152.83927074 119.17949867 148.91084766 C115.06813181 144.80453659 110.96163806 140.69335695 106.85437012 136.58294678 C99.95777905 129.68271566 93.05697796 122.78671597 86.15380859 115.89306641 C78.16227513 107.91242616 70.177984 99.92459461 62.19740057 91.93300557 C55.35350203 85.08004554 48.5057317 78.2309727 41.65468073 71.38516307 C37.55908505 67.29269225 33.46486888 63.19886595 29.37413025 59.10153961 C25.53079793 55.25245069 21.68264588 51.40824764 17.83064079 47.56783867 C16.4139059 46.15375905 14.9988901 44.73795481 13.58568001 43.32035255 C11.66426619 41.3935162 9.73686825 39.47287924 7.80773926 37.55377197 C7.24295978 36.98453105 6.6781803 36.41529013 6.0962863 35.82879949 C1.39679741 31.1769209 0.52571598 31.25178211 -4.15795672 35.8997941 Z " fill="#2FB46E" transform="translate(499,197)"/>
<path d="M0 0 C9.57 0 19.14 0 29 0 C29 18.15 29 36.3 29 55 C37.58 55 46.16 55 55 55 C55 36.85 55 18.7 55 0 C64.24 0 73.48 0 83 0 C83 18.15 83 36.3 83 55 C91.58 55 100.16 55 109 55 C109 36.85 109 18.7 109 0 C118.24 0 127.48 0 137 0 C137 45.21 137 90.42 137 137 C127.76 137 118.52 137 109 137 C109 119.18 109 101.36 109 83 C100.42 83 91.84 83 83 83 C83 100.82 83 118.64 83 137 C73.76 137 64.52 137 55 137 C55 119.18 55 101.36 55 83 C46.42 83 37.84 83 29 83 C29 100.82 29 118.64 29 137 C19.43 137 9.86 137 0 137 C0 91.79 0 46.58 0 0 Z " fill="#2DB26C" transform="translate(431,310)"/>
<path d="M0 0 C0.09192479 7.04573627 -0.12206816 13.97062195 -0.76269531 20.98632812 C-0.84405228 21.92038483 -0.92540924 22.85444153 -1.00923157 23.81680298 C-1.27782271 26.88868729 -1.55304339 29.95994071 -1.828125 33.03125 C-2.02080823 35.22501455 -2.21299714 37.41882257 -2.40472412 39.6126709 C-2.9120789 45.40648917 -3.42471017 51.19982709 -3.93890381 56.99304199 C-4.74524044 66.08279879 -5.54562165 75.1730788 -6.34281921 84.26364136 C-6.54129603 86.52469268 -6.74028051 88.78569949 -6.93977356 91.04666138 C-8.07033536 103.87115274 -9.14809772 116.697525 -10.11914062 129.53515625 C-10.2087846 130.71347771 -10.29842857 131.89179916 -10.39078903 133.10582733 C-10.81866929 138.74421716 -11.23812332 144.38302733 -11.64361572 150.02307129 C-11.7944077 152.04078864 -11.94541695 154.05848976 -12.09667969 156.07617188 C-12.15875862 156.98244827 -12.22083755 157.88872467 -12.28479767 158.82246399 C-12.84780673 166.1806763 -13.63892862 172.49000997 -19 178 C-24.18918919 182 -24.18918919 182 -29 182 C-29 176.39 -29 170.78 -29 165 C-30.27875 166.36125 -31.5575 167.7225 -32.875 169.125 C-41.46254951 177.67223237 -51.29418769 182.84764998 -63.5 183.5 C-71.85073511 183.20554531 -77.80551798 179.63724358 -83.4375 173.625 C-93.33709334 161.53434978 -93.19518307 145.4088843 -91.76123047 130.52099609 C-91.08825669 124.96535917 -90.11876137 119.48180897 -89 114 C-88.86609863 113.32984863 -88.73219727 112.65969727 -88.59423828 111.96923828 C-84.76073135 93.56375835 -76.08975688 77.39728138 -60.1875 66.875 C-53.21942013 62.63722677 -47.19847167 61.6369656 -39.1875 61.625 C-38.33607422 61.60050781 -37.48464844 61.57601562 -36.60742188 61.55078125 C-30.25085229 61.52173371 -25.58803235 63.00989023 -20 66 C-19.96261719 64.95070313 -19.92523438 63.90140625 -19.88671875 62.8203125 C-19.66130868 57.20927841 -19.33881899 51.6052109 -19 46 C-18.96088501 45.33343384 -18.92177002 44.66686768 -18.88146973 43.98010254 C-18.61554148 39.49419814 -18.31406262 35.01235153 -17.97744751 30.53118896 C-17.86820061 29.02032757 -17.76827941 27.50876056 -17.67807007 25.99664307 C-17.15818929 17.42705248 -16.71245435 10.14614045 -10 4 C-6.6441563 1.11895644 -4.59219437 0 0 0 Z " fill="#103A24" transform="translate(424,621)"/>
<path d="M0 0 C8.27825156 19.18757531 16.07867181 38.55201214 23.79940796 57.96908569 C26.37771501 64.44937117 28.97643675 70.92126919 31.58203125 77.390625 C32.69459773 80.15679593 33.80689013 82.92307692 34.9190979 85.68939209 C35.63719518 87.47357564 36.35640556 89.2573116 37.07675171 91.04058838 C38.07511612 93.5127981 39.06926853 95.98666204 40.0625 98.4609375 C40.36166824 99.19854309 40.66083649 99.93614868 40.96907043 100.69610596 C43 105.77223371 43 105.77223371 43 108 C43.66 108 44.32 108 45 108 C45.20238281 107.23042969 45.40476562 106.46085938 45.61328125 105.66796875 C47.55807966 100.52383999 50.36718586 96.02119839 53.1875 91.3125 C58.43173926 82.44853634 63.53066963 73.52089566 68.5 64.5 C73.84564074 54.8134497 79.30692418 45.20688383 84.92602539 35.67626953 C87.77949509 30.83231884 90.58632942 25.97249009 93.296875 21.046875 C93.82643799 20.09216309 94.35600098 19.13745117 94.90161133 18.15380859 C95.88962932 16.36623575 96.86695067 14.57268651 97.83081055 12.77197266 C100.73901155 7.53500648 103.87084642 3.25442897 109 0 C111.875 -0.4375 111.875 -0.4375 114 0 C115.68364224 1.68364224 115.14569422 3.73166951 115.1472168 6.04101562 C115.0784788 13.84482589 114.36670321 21.58009498 113.64453125 29.34375 C113.50073463 30.93538239 113.35747879 32.52706371 113.21472168 34.11878967 C112.83241174 38.36821106 112.44399505 42.61705105 112.05398941 46.86577225 C111.32049692 54.8668944 110.59749111 62.86897203 109.875 70.87109375 C109.79429071 71.76264601 109.71358143 72.65419827 109.63042641 73.57276726 C108.58816336 85.10425878 107.60821574 96.63814067 106.72785378 108.1831398 C106.56485125 110.31687788 106.3996989 112.45043837 106.23381042 114.58395386 C105.61904783 122.49695616 105.61904783 122.49695616 105.03945923 130.41259766 C104.78738417 133.96517978 104.51482599 137.51565878 104.23828125 141.06640625 C104.17177368 142.09709732 104.10526611 143.12778839 104.03674316 144.18971252 C103.48181182 150.98621462 102.11216801 154.57009756 97.5078125 159.64453125 C94.07150314 162.54695073 91.47288652 163.68050811 87 164 C86.72468 154.26590857 87.58280596 144.64902805 88.42578125 134.96484375 C88.57592523 133.20116936 88.7256714 131.43746106 88.87504578 129.67372131 C89.26925953 125.03240551 89.66908892 120.39158999 90.07006836 115.75085449 C90.46631074 111.15256744 90.85685056 106.55379668 91.24804688 101.95507812 C93.12169097 79.96621211 95.04596836 57.98185924 97 36 C96.40441536 37.07022903 96.40441536 37.07022903 95.79679871 38.16207886 C89.32142694 49.79514282 82.81085508 61.39729262 76.0625 72.875 C71.31242344 80.95556686 66.68909236 89.09803011 62.15917969 97.30340576 C59.44995307 102.20809297 56.72466934 107.10388131 54 112 C53.5369043 112.8357959 53.07380859 113.6715918 52.59667969 114.53271484 C43.83666362 130.23763908 43.83666362 130.23763908 37 134 C35.68 134 34.36 134 33 134 C23.74098225 112.02070754 14.72119245 89.95489373 5.90478516 67.79418945 C5.53332367 66.86099884 5.16186218 65.92780823 4.77914429 64.96633911 C4.08546099 63.22273655 3.39270245 61.47876566 2.70108032 59.73434448 C1.28115438 56.16261592 -0.16219875 52.61754714 -1.73144531 49.10864258 C-3 46 -3 46 -3 43 C-3.66 43 -4.32 43 -5 43 C-4.98640442 43.7949588 -4.97280884 44.5899176 -4.95880127 45.40896606 C-4.88404241 53.15021074 -5.30880088 60.67845166 -6.171875 68.3671875 C-6.35537003 70.08087273 -6.35537003 70.08087273 -6.54257202 71.82917786 C-6.93830012 75.51188564 -7.34364823 79.19345053 -7.75 82.875 C-8.30680537 87.9828437 -8.86044988 93.09102816 -9.4140625 98.19921875 C-9.55170013 99.46222305 -9.68933777 100.72522736 -9.83114624 102.02650452 C-10.6674945 109.74816969 -11.44041224 117.47260693 -12.1484375 125.20703125 C-12.31783636 127.0164573 -12.48742548 128.82586555 -12.65722656 130.63525391 C-12.89141438 133.13418895 -13.12040633 135.6329274 -13.33093262 138.13397217 C-13.52090888 140.38652288 -13.73100313 142.63637355 -13.9453125 144.88671875 C-14.05375488 146.12639404 -14.16219727 147.36606934 -14.27392578 148.64331055 C-15.69046656 155.19207289 -19.69802776 159.28861943 -25 163 C-28.375 163.8125 -28.375 163.8125 -31 164 C-31.08006558 157.77820466 -30.80913808 151.72019489 -30.1953125 145.53125 C-30.11127167 144.65206909 -30.02723083 143.77288818 -29.94064331 142.86706543 C-29.76273292 141.01469832 -29.58278127 139.16252623 -29.40087891 137.31054688 C-29.12849281 134.53558338 -28.86250109 131.7600673 -28.59765625 128.984375 C-27.73215004 119.99122143 -26.79255371 111.01302407 -25.70962524 102.04345703 C-24.84991827 94.87399082 -24.17115163 87.68934703 -23.5 80.5 C-22.62245012 71.22478527 -21.67866177 61.96888277 -20.53125 52.72265625 C-20.04661881 48.61181008 -19.66197208 44.49259326 -19.28125 40.37109375 C-19.21711914 39.68282501 -19.15298828 38.99455627 -19.08691406 38.28543091 C-18.76361535 34.81072375 -18.44685828 31.33562749 -18.140625 27.859375 C-16.56233052 10.7554663 -16.56233052 10.7554663 -13.23046875 7.01171875 C-12.55628906 6.57472656 -11.88210937 6.13773438 -11.1875 5.6875 C-10.47722656 5.21441406 -9.76695313 4.74132812 -9.03515625 4.25390625 C-8.36355469 3.84011719 -7.69195312 3.42632813 -7 3 C-5.576875 2.071875 -5.576875 2.071875 -4.125 1.125 C-2 0 -2 0 0 0 Z " fill="#103A24" transform="translate(98,639)"/>
<path d="M0 0 C7.91208531 6.8080734 12.80495856 13.909209 14.06884766 24.51147461 C14.22137425 27.85041594 14.23399555 31.15813243 14.1875 34.5 C14.21070313 36.18512695 14.21070313 36.18512695 14.234375 37.90429688 C14.19622538 46.02539789 12.98083649 51.42037505 7.625 57.75 C4.07812745 60.61038109 0.94559028 60.41294474 -3.4362793 60.33422852 C-5.32790047 60.30408409 -5.32790047 60.30408409 -7.25773621 60.27333069 C-8.63406594 60.24613438 -10.01039341 60.21882354 -11.38671875 60.19140625 C-12.79489881 60.16709998 -14.20308692 60.14325667 -15.61128235 60.11985779 C-19.31524853 60.05706724 -23.01907176 59.98798645 -26.72290039 59.91760254 C-30.50335182 59.8468736 -34.2839045 59.78208394 -38.06445312 59.71679688 C-45.48058074 59.58784939 -52.89656739 59.4522576 -60.3125 59.3125 C-60.02217225 61.86417928 -59.72421472 64.41458316 -59.421875 66.96484375 C-59.34114746 67.68136108 -59.26041992 68.39787842 -59.17724609 69.1361084 C-58.09588923 78.13454232 -55.36753774 86.24452029 -48.3125 92.3125 C-45.74472833 93.95073833 -43.14949375 95.21212191 -40.3125 96.3125 C-39.44367187 96.6734375 -38.57484375 97.034375 -37.6796875 97.40625 C-33.20736342 98.60993815 -29.04554608 98.56504671 -24.4375 98.5 C-23.57769531 98.49935547 -22.71789062 98.49871094 -21.83203125 98.49804688 C-16.57722795 98.4621643 -11.51271078 98.06659089 -6.3125 97.3125 C-6.1475 96.61125 -5.9825 95.91 -5.8125 95.1875 C-3.66531757 91.07206701 -0.41354668 88.46277853 3.6875 86.3125 C6.44921875 86.14453125 6.44921875 86.14453125 8.6875 86.3125 C8.03295633 94.44898137 4.26043397 98.63094813 -1.3125 104.3125 C-14.36484872 115.2455751 -28.07259879 116.44273547 -44.515625 115.0390625 C-54.4556137 113.53386421 -63.0692931 109.32517195 -69.3125 101.3125 C-74.95610285 92.57401817 -76.82443533 82.8107562 -76.625 72.5625 C-76.6137207 71.59948975 -76.60244141 70.63647949 -76.59082031 69.64428711 C-76.44578003 62.05193712 -75.85599836 54.76387141 -74.3125 47.3125 C-73.94511719 45.50265625 -73.94511719 45.50265625 -73.5703125 43.65625 C-69.5291997 26.34741286 -60.6533799 11.27609297 -45.6875 1.25 C-31.72187225 -6.80331558 -14.56836556 -7.42162019 0 0 Z " fill="#103924" transform="translate(919.3125,687.6875)"/>
<path d="M0 0 C7.24438546 5.78353418 11.16552462 13.80554578 12.36328125 22.88671875 C13.13025449 34.09913701 13.94441716 46.78935565 6.36328125 55.88671875 C1.78293972 59.57412006 -2.42226827 59.25486865 -8.0234375 59.10546875 C-8.94307785 59.09286011 -9.8627182 59.08025146 -10.81022644 59.06726074 C-13.75290132 59.02264581 -16.69452642 58.95583734 -19.63671875 58.88671875 C-21.55158017 58.85076119 -23.46645667 58.81559709 -25.38134766 58.78125 C-31.07125979 58.67247414 -36.76013049 58.53160793 -42.44921875 58.38671875 C-44.4251245 58.338308 -46.40103596 58.29013003 -48.37695312 58.2421875 C-53.1302781 58.12636383 -57.88351603 58.00745132 -62.63671875 57.88671875 C-62.35726207 60.25254563 -62.0680975 62.61652665 -61.7734375 64.98046875 C-61.65784485 65.97191895 -61.65784485 65.97191895 -61.53991699 66.98339844 C-60.4005781 75.96569249 -57.46565139 84.34007599 -50.59765625 90.48828125 C-42.56817308 96.21448638 -34.34082293 97.08061858 -24.76171875 97.13671875 C-23.88902344 97.15734375 -23.01632812 97.17796875 -22.1171875 97.19921875 C-15.74203677 97.23756552 -10.61925816 96.65357866 -5.74609375 92.1328125 C-5.2975 91.53597656 -4.84890625 90.93914062 -4.38671875 90.32421875 C-2.49052422 87.8474478 -1.32418647 86.6783639 1.36328125 84.88671875 C4.05078125 84.76171875 4.05078125 84.76171875 6.36328125 84.88671875 C7.30847866 87.39969868 7.54984989 88.47142788 6.4296875 90.96484375 C-0.89870819 101.54818922 -9.35159336 110.24649956 -22.18359375 113.3828125 C-37.09535147 115.55884954 -53.03356419 114.96985162 -65.63671875 105.88671875 C-72.98843679 99.17499402 -77.16369194 89.94148907 -77.82714844 80.04663086 C-77.90579154 76.80311343 -77.91393883 73.56857099 -77.88671875 70.32421875 C-77.87995117 69.16905762 -77.87318359 68.01389648 -77.86621094 66.82373047 C-77.59283694 44.16865519 -72.62382152 24.037534 -56.3359375 7.484375 C-41.17750599 -7.10369585 -18.47348198 -11.86554908 0 0 Z " fill="#103A24" transform="translate(640.63671875,689.11328125)"/>
<path d="M0 0 C7.62802542 5.4115803 11.11388979 13.514195 13.0703125 22.46875 C13.28656431 25.52862223 13.25543697 28.58944089 13.2578125 31.65625 C13.27005859 32.46900391 13.28230469 33.28175781 13.29492188 34.11914062 C13.31459573 42.36248565 12.50635353 49.94550076 7.0703125 56.46875 C3.15371155 59.35881849 0.45262206 59.82221234 -4.37231445 59.7175293 C-5.65326492 59.69728195 -6.93421539 59.67703461 -8.25398254 59.65617371 C-9.6419869 59.61876958 -11.02998217 59.58102671 -12.41796875 59.54296875 C-13.84569258 59.51491534 -15.27344383 59.4882271 -16.70121765 59.46284485 C-20.44818977 59.39257919 -24.19450249 59.30383268 -27.940979 59.21118164 C-31.76836933 59.11981885 -35.59609415 59.0460083 -39.42382812 58.97070312 C-46.92621751 58.82052497 -54.42799696 58.65081387 -61.9296875 58.46875 C-61.48639424 61.52776295 -61.02775859 64.58428782 -60.56640625 67.640625 C-60.44164917 68.50284668 -60.31689209 69.36506836 -60.18835449 70.25341797 C-58.76588496 79.56981185 -55.68568422 86.02005554 -48.18359375 91.9609375 C-40.53446323 97.07803348 -33.19193568 97.82602689 -24.1796875 97.90625 C-22.83064331 97.9215979 -22.83064331 97.9215979 -21.4543457 97.93725586 C-15.11837714 97.85327741 -9.87352004 97.19970209 -5.0390625 92.71484375 C-4.59046875 92.11800781 -4.141875 91.52117187 -3.6796875 90.90625 C-1.78349297 88.42947905 -0.61715522 87.26039515 2.0703125 85.46875 C4.7578125 85.34375 4.7578125 85.34375 7.0703125 85.46875 C7.99581042 87.94975347 8.25684339 89.04459497 7.171875 91.51171875 C-0.60187855 102.80217033 -9.06552566 110.83706749 -22.67456055 114.07397461 C-26.8728155 114.80890784 -31.05314091 114.79665415 -35.3046875 114.78125 C-36.18640625 114.79736328 -37.068125 114.81347656 -37.9765625 114.83007812 C-48.93285192 114.8381106 -59.83367814 111.5516778 -67.75 103.65234375 C-76.05322743 93.32546541 -77.11031199 82.10470357 -77.1171875 69.34375 C-77.12943359 68.17070313 -77.14167969 66.99765625 -77.15429688 65.7890625 C-77.16654244 58.44172224 -76.49513356 51.64125683 -74.9296875 44.46875 C-74.74148437 43.42203125 -74.55328125 42.3753125 -74.359375 41.296875 C-70.84828656 24.97773155 -61.18286072 11.39811152 -47.9296875 1.46875 C-33.59234243 -7.72243203 -14.86236238 -8.90706038 0 0 Z " fill="#103A24" transform="translate(301.9296875,688.53125)"/>
<path d="M0 0 C8.72117828 5.62463642 16.66690022 13.58541296 20.27734375 23.46875 C20.27734375 27.96669855 18.00908008 30.99870655 15.27734375 34.46875 C10.41026215 38.50739218 10.41026215 38.50739218 6.7578125 38.3828125 C4.27734375 37.46875 4.27734375 37.46875 2.79296875 35.24609375 C2.3753125 34.30894531 1.95765625 33.37179687 1.52734375 32.40625 C-3.78133945 21.95180994 -11.91107775 17.0726095 -22.72265625 13.46875 C-24.36637116 13.37545066 -26.01380302 13.33879856 -27.66015625 13.34375 C-28.51480469 13.34117187 -29.36945312 13.33859375 -30.25 13.3359375 C-32.54946477 13.45944746 -34.51905973 13.82454313 -36.72265625 14.46875 C-37.41926952 22.61138511 -36.59699834 28.75068514 -31.72265625 35.46875 C-24.630459 43.05112071 -14.01376204 47.10209592 -4.44140625 50.703125 C5.23313659 54.34354576 13.23895888 60.26822111 18.27734375 69.46875 C20.8894914 77.30519296 20.14653239 86.64668419 16.66796875 94.09375 C10.39454371 104.80791412 1.39747079 113.07288515 -10.48046875 117.05859375 C-23.81414585 119.49768102 -35.803975 116.99595242 -46.98046875 109.4921875 C-63.17123344 97.545156 -63.17123344 97.545156 -65.47265625 88.53125 C-64.06227689 82.77220096 -59.5459339 78.68426843 -54.72265625 75.46875 C-52.24609375 75.08984375 -52.24609375 75.08984375 -49.72265625 75.46875 C-47.94921875 77.19140625 -47.94921875 77.19140625 -46.34765625 79.53125 C-39.04617507 89.52192768 -29.99687375 97.25333786 -17.72265625 100.46875 C-14.00367616 100.74626608 -14.00367616 100.74626608 -10.16015625 100.65625 C-8.24009766 100.64658203 -8.24009766 100.64658203 -6.28125 100.63671875 C-3.29328016 100.49568395 -0.62217672 100.1644123 2.27734375 99.46875 C4.6811233 92.25741135 3.33258328 86.69885379 0.25 80.05859375 C-5.74645725 72.18601721 -14.27996036 68.5779578 -23.22265625 64.96875 C-35.51644244 60.00706623 -45.91141734 53.9686054 -52.59765625 42.15625 C-55.57646613 32.39237318 -53.12958445 24.86738703 -48.47265625 16.12109375 C-43.70731159 8.22849165 -36.08570242 1.52982178 -27.46484375 -1.90625 C-18.71095259 -3.90143887 -8.18608996 -3.91812853 0 0 Z " fill="#103924" transform="translate(800.72265625,685.53125)"/>
<path d="M0 0 C8.05894492 28.73711837 8.05894492 28.73711837 11.01293945 41.85229492 C11.95979646 45.92897081 13.08485957 49.94925089 14.234375 53.97265625 C17.43293749 65.33392148 20.2352352 76.79190393 23.0625 88.25 C27.37100468 105.84137595 27.37100468 105.84137595 32.23608398 123.28417969 C32.95606171 125.84379369 33.51747702 128.38630897 34 131 C38.40924169 121.67921495 42.27160456 112.14334953 46.1552124 102.59524536 C47.33734729 99.68891178 48.52208275 96.78365036 49.70751953 93.87866211 C51.34202691 89.8730138 52.97572104 85.86703536 54.60888672 81.86083984 C56.83963873 76.39081513 59.07621351 70.92319575 61.31640625 65.45703125 C61.82784935 64.20879829 61.82784935 64.20879829 62.34962463 62.93534851 C64.01637107 58.86945241 65.68652836 54.8050024 67.36254883 50.74291992 C70.1385283 44.01030428 72.9065483 37.27737882 75.56289673 30.49647522 C76.61835896 27.8057674 77.68825072 25.12091482 78.75958252 22.43649292 C79.46964725 20.63932266 80.15793677 18.83359501 80.84521484 17.02758789 C83.64810359 10.02871728 86.84938189 4.55522244 93 0 C96.5 -1 96.5 -1 99 -1 C100.22149958 1.88730335 99.968141 3.09909035 98.99047852 6.13989258 C98.46485686 7.39634144 97.9267036 8.64759103 97.37890625 9.89453125 C97.08834351 10.58115845 96.79778076 11.26778564 96.49841309 11.97521973 C95.86427748 13.47018796 95.22494271 14.96295888 94.58108521 16.45376587 C93.54517831 18.85261179 92.52261893 21.25675081 91.50366211 23.6628418 C90.43031837 26.19731829 89.35628433 28.73147041 88.27833557 31.26399231 C84.79749184 39.44547084 81.4137237 47.66529816 78.05026245 55.89559937 C77.05305471 58.33561114 76.05423623 60.77495763 75.05493164 63.21411133 C73.70817649 66.50143036 72.36192285 69.7889539 71.01611328 73.07666016 C69.01164251 77.97258395 67.00421491 82.86729129 64.99609375 87.76171875 C64.66593262 88.56684906 64.33577148 89.37197937 63.99560547 90.20150757 C62.3406906 94.23642315 60.68306583 98.27018638 59.02001953 102.30175781 C55.88819466 109.90217852 52.78528859 117.51123541 49.76986694 125.15872192 C48.34670753 128.76345938 46.90915345 132.36237684 45.47045898 135.9609375 C44.78973649 137.67537354 44.11605176 139.39262319 43.44995117 141.11279297 C42.52479079 143.50065287 41.57562975 145.87766595 40.62109375 148.25390625 C40.35807968 148.95209976 40.09506561 149.65029327 39.82408142 150.36964417 C37.7227908 155.49807178 34.72082455 159.02880746 30 162 C27.55710306 162.72204283 25.57092963 162.8950641 23 163 C20.90218859 157.12409134 19.4210698 151.10052935 17.875 145.0625 C17.57078125 143.88171875 17.2665625 142.7009375 16.953125 141.484375 C16.13472137 138.30723897 15.31805271 135.12966239 14.50183105 131.95196533 C13.17328506 126.78433829 11.83779482 121.61849797 10.50393677 116.45223999 C9.9971107 114.48880693 9.49057502 112.52529918 8.98413086 110.56176758 C5.66781158 97.70480185 2.33499837 84.85213088 -1 72 C-1.57033565 69.80208934 -2.1406481 67.60417266 -2.7109375 65.40625 C-2.99573975 64.30909668 -3.28054199 63.21194336 -3.57397461 62.08154297 C-4.14652518 59.87260175 -4.7176674 57.66329498 -5.28735352 55.45361328 C-6.72658588 49.87623245 -8.18176604 44.30395183 -9.67604065 38.74108887 C-10.43841106 35.89782631 -11.19243739 33.05238209 -11.94558716 30.20666504 C-12.31218023 28.83021065 -12.68262221 27.45477499 -13.05709839 26.08044434 C-13.57916533 24.16305514 -14.08675455 22.24174187 -14.59375 20.3203125 C-15.03750977 18.66926514 -15.03750977 18.66926514 -15.49023438 16.98486328 C-16.25864791 12.48552237 -15.49539519 9.89905053 -13.3125 5.9375 C-9.33251324 0.88184115 -6.37621684 -1.65069573 0 0 Z " fill="#103A24" transform="translate(453,639)"/>
<path d="M0 0 C7.24984987 3.59383638 11.3746727 10.75621871 13.96484375 18.19140625 C15.95789508 40.32609923 13.49716117 65.52131804 -0.78515625 83.06640625 C-3.66957508 86.18885964 -6.24907345 87.94951157 -10.515625 88.52734375 C-18.19309195 88.63812971 -24.11249045 87.57222522 -30.04296875 82.4609375 C-38.7119972 73.37478006 -39.34963835 61.74559039 -39.25390625 49.6953125 C-38.7171991 34.85871434 -37.54244179 13.75226784 -27.03515625 2.19140625 C-20.25101173 -3.28173098 -8.03163974 -2.13970325 0 0 Z " fill="#E2F1E9" transform="translate(387.03515625,699.80859375)"/>
<path d="M0 0 C1.0209375 0.4021875 1.0209375 0.4021875 2.0625 0.8125 C2.0625 3.7825 2.0625 6.7525 2.0625 9.8125 C2.59617187 9.42578125 3.12984375 9.0390625 3.6796875 8.640625 C14.1862574 1.29693254 22.17537129 -0.85599659 35.0625 -0.1875 C34.6474902 5.103875 33.90009901 8.07589044 30.0625 11.8125 C25.47587746 15.32565769 22.39181792 16.00304136 16.625 16.25 C10.80766978 16.53818571 6.21266341 17.49894433 2.0625 21.8125 C0.49719335 25.21445717 -0.27871131 28.26546144 -0.68579102 31.97753906 C-0.85642311 33.49054596 -0.85642311 33.49054596 -1.03050232 35.03411865 C-1.14547562 36.12114075 -1.26044891 37.20816284 -1.37890625 38.328125 C-1.50544083 39.47170471 -1.6319754 40.61528442 -1.76234436 41.79351807 C-2.68882338 50.24814545 -3.5449412 58.7100196 -4.40234375 67.171875 C-4.76999846 70.76228497 -5.13837879 74.35261862 -5.50756836 77.94287109 C-5.75610288 80.39122511 -5.99911551 82.84014494 -6.23706055 85.28955078 C-6.58926346 88.89791111 -6.96253302 92.50356512 -7.33984375 96.109375 C-7.44103012 97.19990173 -7.54221649 98.29042847 -7.64646912 99.41400146 C-8.44639035 106.7985987 -9.97607134 111.73918374 -15.875 116.625 C-18.77593922 118.69709944 -20.41832551 119.61140431 -23.9375 119.8125 C-24.9375 118.8125 -24.9375 118.8125 -24.95483398 115.80883789 C-24.89480215 114.36301597 -24.82405724 112.91762218 -24.74609375 111.47265625 C-24.70181747 110.65072281 -24.6575412 109.82878937 -24.61192322 108.98194885 C-23.7319111 94.82503756 -21.91014414 80.72971896 -20.2769165 66.64416504 C-19.72603074 61.88131621 -19.1834107 57.11751869 -18.63997459 52.35381508 C-18.2054052 48.54796646 -17.76792323 44.74250649 -17.32315063 40.93783569 C-16.61868638 34.89696958 -15.92024731 28.85950134 -15.37841797 22.80126953 C-15.29990097 21.96064468 -15.22138397 21.12001984 -15.14048767 20.25392151 C-14.95425787 18.20050407 -14.78732262 16.14535866 -14.62280273 14.09008789 C-13.33927604 7.95138257 -9.72669439 4.05858198 -4.6875 0.6484375 C-2.9375 -0.1875 -2.9375 -0.1875 0 0 Z " fill="#113A25" transform="translate(693.9375,683.1875)"/>
<path d="M0 0 C1.96875 1.1171875 1.96875 1.1171875 3.6875 2.3125 C4.2546875 2.68632813 4.821875 3.06015625 5.40625 3.4453125 C10.95140442 7.54981405 14.15549348 13.67380509 15.6875 20.3125 C15.73860485 22.21291886 15.75119829 24.11459356 15.734375 26.015625 C15.72422363 27.50304199 15.72422363 27.50304199 15.71386719 29.02050781 C15.70516602 29.77686523 15.69646484 30.53322266 15.6875 31.3125 C-3.34032979 31.47186206 -22.30115566 31.02976525 -41.3125 30.3125 C-41.02139373 28.25698726 -40.72310942 26.2024904 -40.421875 24.1484375 C-40.25655273 23.0042334 -40.09123047 21.8600293 -39.92089844 20.68115234 C-38.51623198 12.90362916 -35.53674459 5.46763904 -29.3125 0.3125 C-21.73205685 -3.86304909 -7.82865268 -3.31677052 0 0 Z " fill="#DFEFE7" transform="translate(901.3125,700.6875)"/>
<path d="M0 0 C0.84014648 0.01281006 1.68029297 0.02562012 2.54589844 0.03881836 C10.92702123 0.31239821 17.23304756 1.99364111 23.5625 7.6875 C30.43295046 15.20610616 31.83124032 23.72565851 31.6875 33.5 C19.17902049 33.58012549 6.69105292 33.32770965 -5.8125 33 C-7.71483906 32.9516382 -9.6171828 32.90346004 -11.51953125 32.85546875 C-16.117244 32.73908908 -20.7148869 32.6202492 -25.3125 32.5 C-25.43778195 23.002368 -22.60857912 11.95311514 -16.3125 4.5 C-10.84252379 0.56715634 -6.65148886 -0.15322038 0 0 Z " fill="#E0F0E8" transform="translate(605.3125,698.5)"/>
<path d="M0 0 C7.94751818 2.99541719 13.08131254 8.697126 16.6953125 16.28125 C18.30882101 21.66238406 18.72750902 26.68290028 18.6953125 32.28125 C6.18683299 32.36137549 -6.30113458 32.10895965 -18.8046875 31.78125 C-20.70702656 31.7328882 -22.6093703 31.68471004 -24.51171875 31.63671875 C-29.1094315 31.52033908 -33.7070744 31.4014992 -38.3046875 31.28125 C-38.15172917 29.83909662 -37.99671034 28.39716169 -37.84082031 26.95532227 C-37.71166229 25.75082176 -37.71166229 25.75082176 -37.57989502 24.52198792 C-36.50968247 15.80832399 -33.16606436 7.78342901 -26.6171875 1.84375 C-19.5930588 -2.90228291 -8.03977689 -1.74860396 0 0 Z " fill="#E1F0E8" transform="translate(280.3046875,699.71875)"/>
</svg>
